<?xml version="1.0" encoding="UTF-8"?>
<svg width="330px" height="210px" viewBox="0 0 330 210" version="1.1" xmlns="http://www.w3.org/2000/svg" xmlns:xlink="http://www.w3.org/1999/xlink">
    <title>future-ghosts_logo_standard_black-on-white</title>
    <g id="future-ghosts_logo_standard_black-on-white" stroke="none" stroke-width="1" fill="none" fill-rule="evenodd">
        <rect fill="#FFFFFF" x="0" y="0" width="330" height="210"></rect>
        <g id="Logo" transform="translate(54, 46)" fill="#000000">
            <path d="M159.302,20.972 L169.998,20.972 L169.998,18.536 L161.934,18.536 L161.934,11.592 L169.914,11.592 L169.914,9.156 L161.934,9.156 L161.934,2.744 L169.998,2.744 L169.998,0.308 L159.302,0.308 L159.302,20.972 Z M60.5169965,26.1765929 L67.8563744,30.4237927 C69.6441404,31.4621331 70.6792593,33.2080842 70.6792593,35.2847649 L70.6792593,88.1884494 L73.1837237,89.6360276 L69.9266122,100.317192 L62.5403081,96.0696873 C60.7994684,95.0313469 59.7646548,93.2380172 59.7646548,91.2087151 L59.7646548,68.6974918 L57.459482,74.4079043 C56.612677,76.5787297 54.6365953,77.9001147 52.2841927,77.9001147 L50.6375091,77.9001147 L50.6375091,88.1881467 L53.385717,89.6360276 L49.9320936,100.317192 L42.5457894,96.0693846 C40.8049497,95.0310443 39.7701361,93.2377145 39.7701361,91.2084124 C39.770079,90.0699293 39.7700254,88.9380801 39.7699752,87.8120467 L39.769222,38.3056432 L35.2054974,35.6628713 L40.5218691,26.1765929 L47.861247,30.424099 C49.6490129,31.4624393 50.6369003,33.2083905 50.6369003,35.2850712 L50.6369003,66.9989156 L59.7640441,66.9989156 L59.7640441,38.3053351 L55.2006249,35.662565 L60.5169965,26.1765929 Z M12.6557514,26.9318958 C14.4435173,25.8935555 16.4665236,25.8935555 18.2542896,26.9318958 L28.1340805,32.6423084 C29.8749202,33.6806487 30.9097338,35.4265999 30.9097338,37.5032806 L30.9097338,39.8156274 C30.9097338,42.9303404 28.416247,45.4315872 25.3111956,45.4315872 L20.0420555,45.4315872 L20.0420555,40.5709213 L10.9149117,35.3795258 L10.9149117,85.9234866 L20.0420555,91.1148821 L20.0420555,69.5946188 L12.8909916,69.5946188 L15.9018852,62.1379488 C16.7959199,60.0141958 18.7716946,58.6457384 21.0771727,58.6457384 L35.332376,58.6457384 L30.9100391,69.594617 L30.9100391,88.9911273 C30.9097338,91.0204294 29.8749202,92.8140654 28.1340805,93.8050271 C24.8407133,95.7398838 21.5476532,97.6276644 18.2542878,99.5625156 C16.4665218,100.553477 14.4435155,100.553477 12.6557496,99.5625156 L2.8228849,93.8050308 C1.03511892,92.814069 0,91.0207393 0,88.9914371 L0,37.5032806 C0,35.4269062 1.03511892,33.6806487 2.8228849,32.6423084 C6.11625032,30.7545277 9.40931223,28.8196765 12.6557514,26.9318958 Z M145.95527,43.5911833 L148.448756,38.5886897 C149.813272,35.9456151 148.825079,32.6893789 146.284666,31.2264706 L138.898362,26.931894 C137.110596,25.8935537 135.08759,25.8935537 133.34675,26.931894 L123.466959,32.6423066 C121.679193,33.6806469 120.691306,35.4269043 120.691306,37.5032788 L120.691306,58.7401912 C120.691306,60.8168719 121.679193,62.562823 123.466959,63.6011634 L133.34675,69.3115759 C135.08759,70.3499163 137.110596,70.3499163 138.898362,69.3115759 L140.686128,68.3206142 L140.686128,91.3508563 L126.33677,82.9976755 L123.796052,88.0472414 C122.43184,90.6900115 123.372801,93.946554 125.960446,95.4094623 L133.34675,99.7040389 C135.08759,100.742379 137.157522,100.695001 138.898362,99.7040389 L148.778153,93.9936263 C150.565919,92.955286 151.553806,91.1619562 151.553806,89.1326541 L151.553806,65.2055949 C151.553806,63.1759883 150.565919,61.3826568 148.778153,60.391695 L143.461781,57.2769802 C141.674015,56.2860185 139.651009,56.2860185 137.910169,57.2769802 L131.558679,60.9110165 L131.558679,35.3795276 L145.95527,43.5911833 Z M203.792944,26.931894 C205.533784,25.8935537 207.55679,25.8935537 209.344556,26.931894 L216.73086,31.2264706 C219.271273,32.6893789 220.259466,35.9456151 218.89495,38.5886897 L216.401464,43.5911833 L202.004873,35.3795276 L202.004873,60.9110165 L208.356363,57.2769802 C210.097203,56.2860185 212.120209,56.2860185 213.907975,57.2769802 L219.224347,60.391695 C221.012113,61.3826568 222,63.1759883 222,65.2055949 L222,89.1326541 C222,91.1619562 221.012113,92.955286 219.224347,93.9936263 L209.344556,99.7040389 C207.603716,100.695001 205.533784,100.742379 203.792944,99.7040389 L196.40664,95.4094623 C193.818995,93.946554 192.878034,90.6900115 194.242246,88.0472414 L196.782964,82.9976755 L211.132322,91.3508563 L211.132322,68.3206142 L209.344556,69.3115759 C207.55679,70.3499163 205.533784,70.3499163 203.792944,69.3115759 L193.913153,63.6011634 C192.125387,62.562823 191.1375,60.8168719 191.1375,58.7401912 L191.1375,37.5032788 C191.1375,35.4269043 192.125387,33.6806469 193.913153,32.6423066 Z M192.561843,26.0827582 L189.597875,33.4920495 C188.703841,35.6628749 186.728066,36.9842599 184.422588,36.9842599 L173.554604,36.9842599 L175.060204,37.8807708 C176.84797,38.8717325 177.835857,40.6650641 177.835857,42.6946707 L177.835857,88.1890655 L182.399582,90.7847633 L177.130442,100.317808 L169.744137,96.0703034 C168.003298,95.0319631 166.968179,93.2386333 166.968179,91.2093312 L166.968179,45.7149363 L162.40476,43.1192386 L165.839207,36.9842599 L152.242495,36.9842599 L155.253694,29.5749686 C156.100499,27.4041432 158.076273,26.0827582 160.428981,26.0827582 L192.561843,26.0827582 Z M48.914,20.972 L48.914,12.012 L56.978,12.012 L56.978,9.576 L48.914,9.576 L48.914,2.744 L56.978,2.744 L56.978,0.308 L46.282,0.308 L46.282,20.972 L48.914,20.972 Z M74.066,21.252 C78.602,21.252 81.738,18.06 81.738,13.384 L81.738,0.308 L79.106,0.308 L79.106,13.384 C79.106,16.492 76.978,18.788 74.122,18.788 C71.266,18.788 68.97,16.492 68.97,13.384 L68.97,0.308 L66.338,0.308 L66.338,13.384 C66.338,18.06 69.502,21.252 74.066,21.252 Z M98.014,20.972 L98.014,2.744 L103.418,2.744 L103.418,0.308 L89.978,0.308 L89.978,2.744 L95.382,2.744 L95.382,20.972 L98.014,20.972 Z M119.386,21.252 C123.922,21.252 127.058,18.06 127.058,13.384 L127.058,0.308 L124.426,0.308 L124.426,13.384 C124.426,16.492 122.298,18.788 119.442,18.788 C116.586,18.788 114.29,16.492 114.29,13.384 L114.29,0.308 L111.658,0.308 L111.658,13.384 C111.658,18.06 114.822,21.252 119.386,21.252 Z M139.19,20.972 L139.19,10.248 L139.414,10.248 L140.562,12.936 L146.946,20.972 L150.362,20.972 L143.782,13.132 C147.282,13.132 150.194,10.192 150.194,6.692 C150.194,2.884 147.254,0 143.39,0 C139.414,0 136.558,2.912 136.558,7.028 L136.558,20.972 L139.19,20.972 Z M139.19,6.692 C139.19,4.256 140.982,2.464 143.39,2.464 C145.77,2.464 147.562,4.256 147.562,6.692 C147.562,9.128 145.77,10.948 143.39,10.948 C140.982,10.948 139.19,9.128 139.19,6.692 Z" id="Type" fill-rule="nonzero"></path>
            <path d="M98.0732033,24.9600148 C106.355032,24.9600148 112.285879,31.5796439 115.021118,38.129422 C116.301582,41.2731536 116.973581,44.7213001 117.495703,48.0828178 C119.742216,62.4397048 119.560573,75.8841566 118.952108,90.1244591 C118.899163,92.2359327 118.86088,94.3546928 118.885316,96.4354011 C118.849476,101.667937 119.999612,106.524002 119.418028,111.749252 C118.847847,116.682231 116.422949,119.048733 112.052919,115.468619 C110.295947,114.185381 108.605768,112.918335 106.977494,113.083496 C105.178922,113.356721 103.623392,114.557293 102.05436,115.700175 L101.558128,116.058018 C99.8176504,117.295716 98.0276895,118.336272 95.8418602,117.849694 C93.2698463,117.227776 91.5340702,115.13036 89.8704902,112.986853 L89.4180025,112.402191 C88.5143109,111.234877 87.6114339,110.092512 86.5853798,109.207064 C84.8235206,107.587835 82.4703024,107.774856 80.1977241,108.408784 C77.7255824,109.039473 75.4187932,109.679069 74.0226644,107.672845 C72.245398,104.176959 73.6032181,99.5790484 75.2156323,95.0451625 L75.5109627,94.2217847 C76.6983764,90.933172 77.928114,87.7158023 78.0921273,85.0182229 C78.6843009,80.3362246 78.244447,75.3894824 78.178469,70.6410957 C77.976462,62.9125194 78.8472098,56.1546705 80.408691,49.3004774 C81.8767861,43.1237314 84.3885788,36.0454014 88.7449652,30.7575602 C90.2916151,28.8802156 87.7149462,29.2685913 88.5663127,27.3041304 C89.1338904,25.9944897 92.3028539,25.2131179 98.0732033,24.9600148 Z M94.3669024,40.7308849 C92.2461322,40.7308849 90.5269083,44.4334374 90.5269083,49.0005879 C90.5269083,53.5677383 92.2461322,57.2701445 94.3669024,57.2701445 C96.4876726,57.2701445 98.2068965,53.5677383 98.2068965,49.0005879 C98.2068965,46.6742339 98.1660163,43.8844718 97.4480369,42.3818589 C96.756463,40.9345084 95.4074231,40.7308849 94.3669024,40.7308849 Z M107.210401,39.4700522 C105.903151,39.6074134 104.736099,40.6586525 104.234743,42.6822986 C103.835519,44.2937065 103.922313,46.6335867 104.234743,48.8111523 C104.939532,53.723359 107.414467,57.5054668 109.762667,57.2587264 C112.110866,57.011986 113.443113,52.8298331 112.738325,47.9176263 C112.033536,43.0054196 109.558601,39.2233118 107.210401,39.4700522 Z" id="Ghost"></path>
        </g>
    </g>
</svg>